<svg xmlns="http://www.w3.org/2000/svg" viewBox="0 0 1024 1024"><polygon points="557.3,45.3 512.1,0 466.8,45.3 0.1,511.9 45.4,557.2 512.1,90.5 978.7,557.2 1024,511.9 "/><polygon points="896.1,896 896.1,576 832.1,576 832.1,896 640.1,896 640.1,704 640.1,704 640.1,704 384.1,704 384.1,704 384,704  	384,896.1 192,896.1 192,576.2 128,576.2 128,960 192,960 192,959.9 384,959.9 384,960 448,960 448,959.9 448.1,959.9 448.1,896.1  	448,896.1 448,768.1 576.1,768.1 576.1,896 576.1,896 576.1,960.1 896.2,960.1 896.2,896 "/></svg>