<svg xmlns="http://www.w3.org/2000/svg" viewBox="0 0 1024 1024"><g><g><g><path d="M607.75,64.7h-191.5c-53.157,0-96.25,43.093-96.25,96.25v0c0,53.157,43.093,96.25,96.25,96.25h191.5	c53.157,0,96.25-43.093,96.25-96.25v0C704,107.793,660.907,64.7,607.75,64.7z M639.917,160.7c0,17.673-14.327,32-32,32H416	c-17.673,0-32-14.327-32-32v0c0-17.673,14.327-32,32-32h191.917C625.59,128.7,639.917,143.027,639.917,160.7L639.917,160.7z"/></g><g><path d="M607.75,384.584h-191.5c-53.157,0-96.25,43.093-96.25,96.25v0c0,53.157,43.093,96.25,96.25,96.25h191.5	c53.157,0,96.25-43.093,96.25-96.25v0C704,427.676,660.907,384.584,607.75,384.584z M639.917,480.584c0,17.673-14.327,32-32,32	H416c-17.673,0-32-14.327-32-32v0c0-17.673,14.327-32,32-32h191.917C625.59,448.584,639.917,462.911,639.917,480.584	L639.917,480.584z"/></g><g><path d="M607.75,704.468h-191.5c-53.157,0-96.25,43.093-96.25,96.25v0c0,53.157,43.093,96.25,96.25,96.25h191.5	c53.157,0,96.25-43.093,96.25-96.25v0C704,747.561,660.907,704.468,607.75,704.468z M639.917,800.468c0,17.673-14.327,32-32,32	H416c-17.673,0-32-14.327-32-32v0c0-17.673,14.327-32,32-32h191.917C625.59,768.468,639.917,782.795,639.917,800.468	L639.917,800.468z"/></g></g><path d="M1024,335.7c0-114.143-91.7-206.706-204.8-206.706v-0.01h-51.26v64.005h51.26c75.403-0.016,136.543,66.566,136.559,142.672	c0.014,66.693-37.088,122.326-97.009,135.079v-48.125l-90.51,90.51l90.51,90.51v-63.018C957.338,527.278,1024,440.608,1024,335.7z"	/><path d="M-0.069,690.286c0,114.143,91.7,206.706,204.8,206.706v0.01h51.26v-64.005h-51.26	c-75.403,0.016-136.543-66.566-136.559-142.672c-0.014-66.693,37.088-122.326,97.009-135.079v48.125l90.51-90.51l-90.51-90.51	v63.018C66.593,498.709-0.069,585.379-0.069,690.286z"/></g></svg>