<svg xmlns="http://www.w3.org/2000/svg" viewBox="0 0 1024 1024"><g><g><path d="M383.275,84.944H147.687c-46.469,0-84.139,37.67-84.139,84.139v235.592c0,46.469,37.67,84.139,84.139,84.139h235.588	c46.469,0,84.139-37.67,84.139-84.139V169.083C467.414,122.614,429.744,84.944,383.275,84.944z M399.767,369.107	c0,29.043-23.544,52.587-52.587,52.587H183.782c-29.043,0-52.587-23.544-52.587-52.587V204.651	c0-29.043,23.544-52.587,52.587-52.587h163.399c29.043,0,52.587,23.544,52.587,52.587V369.107z"/></g><g><path d="M383.555,556.71H147.968c-46.469,0-84.139,37.67-84.139,84.139v235.592c0,46.469,37.67,84.139,84.139,84.139h235.588	c46.469,0,84.139-37.67,84.139-84.139V640.849C467.694,594.38,430.024,556.71,383.555,556.71z M400.048,840.873	c0,29.043-23.544,52.587-52.587,52.587H184.062c-29.043,0-52.587-23.544-52.587-52.587V676.417	c0-29.043,23.544-52.587,52.587-52.587h163.399c29.043,0,52.587,23.544,52.587,52.587V840.873z"/></g><g><path d="M854.787,556.604H619.199c-46.469,0-84.139,37.67-84.139,84.139v235.592c0,46.469,37.67,84.139,84.139,84.139h235.588	c46.469,0,84.139-37.67,84.139-84.139V640.743C938.926,594.275,901.255,556.604,854.787,556.604z M871.279,840.767	c0,29.043-23.544,52.587-52.587,52.587H655.293c-29.043,0-52.587-23.544-52.587-52.587V676.312	c0-29.043,23.544-52.587,52.587-52.587h163.399c29.043,0,52.587,23.544,52.587,52.587V840.767z"/></g><g><path d="M938.488,233.853L790.019,85.384c-29.285-29.285-76.765-29.285-106.05,0L535.497,233.856	c-29.285,29.285-29.285,76.765,0,106.05l148.469,148.469c29.285,29.285,76.765,29.285,106.05,0l148.472-148.472	C967.773,310.618,967.773,263.137,938.488,233.853z M769.8,423.328c-18.303,18.303-47.978,18.303-66.281,0L600.544,320.353	c-18.303-18.303-18.303-47.978,0-66.281L704.185,150.43c18.303-18.303,47.978-18.303,66.281,0l102.975,102.975	c18.303,18.303,18.303,47.978,0,66.281L769.8,423.328z"/></g></g></svg>