<svg xmlns="http://www.w3.org/2000/svg" width="1024" height="1024" viewBox="0 0 1024 1024"><path d="M276.8 612.8h470.4c18.56 0 33.6-15.04 33.6-33.6s-15.04-33.6-33.6-33.6H276.8c-18.56 0-33.6 15.04-33.6 33.6s15.04 33.6 33.6 33.6zm504-470.4h-67.2V41.6C713.6 23.04 698.56 8 680 8s-33.6 15.04-33.6 33.6v100.8H377.6V41.6C377.6 23.04 362.56 8 344 8s-33.6 15.04-33.6 33.6v100.8h-67.2c-74.24 0-134.4 60.16-134.4 134.4v604.8c0 74.24 60.16 134.4 134.4 134.4h537.6c74.24 0 134.4-60.16 134.4-134.4V276.8c0-74.24-60.16-134.4-134.4-134.4zM848 881.6c0 37.12-30.08 67.2-67.2 67.2H243.2c-37.12 0-67.2-30.08-67.2-67.2V411.2h672v470.4zm0-537.6H176v-67.2c0-37.12 30.08-67.2 67.2-67.2h67.2v33.6c0 18.56 15.04 33.6 33.6 33.6s33.6-15.04 33.6-33.6v-33.6h268.8v33.6c0 18.56 15.04 33.6 33.6 33.6s33.6-15.04 33.6-33.6v-33.6h67.2c37.12 0 67.2 30.08 67.2 67.2V344zM276.8 814.4h268.8c18.56 0 33.6-15.04 33.6-33.6s-15.04-33.6-33.6-33.6H276.8c-18.56 0-33.6 15.04-33.6 33.6s15.04 33.6 33.6 33.6z"/></svg>
