<svg xmlns="http://www.w3.org/2000/svg" viewBox="0 0 16 16"><path d="M14.845 8.632h-0.292v4.285c0 1.251 0.292 2.319 0.292 2.319 0 0.309-0.262 0.562-0.583 0.562h-12.524c-0.32 0-0.582-0.253-0.582-0.562 0 0 0.292-1.026 0.292-2.262v-4.342h-0.292c-0.32 0-0.582-0.253-0.582-0.562v-2.81c0-0.309 0.262-0.562 0.582-0.562h4.952v-3.091c0-0.773 0.655-1.405 1.456-1.405h0.874c0.801 0 1.456 0.632 1.456 1.405v3.091h4.952c0.32 0 0.582 0.253 0.582 0.562v2.81c-0.002 0.309-0.264 0.562-0.583 0.562v0zM4.796 15.236v-3.723c0-0.112 0.102-0.211 0.219-0.211h0.146c0.116 0 0.218 0.098 0.218 0.211v3.723h2.475v-3.723c0-0.112 0.102-0.211 0.218-0.211h0.146c0.116 0 0.219 0.098 0.219 0.211v3.723h2.33v-3.723c0-0.112 0.101-0.211 0.218-0.211h0.146c0.117 0 0.218 0.098 0.218 0.211v3.723h2.912c0 0-0.291-1.012-0.291-2.262v-4.342h-11.94v4.341c0 1.251-0.291 2.262-0.291 2.262h3.057zM14.845 5.541c0-0.155-0.131-0.281-0.292-0.281h-5.242v-3.512c0-0.548-0.451-0.984-1.019-0.984h-0.583c-0.568 0-1.019 0.435-1.019 0.984v3.512h-5.243c-0.16 0-0.292 0.126-0.292 0.281v2.248c0 0.154 0.131 0.281 0.292 0.281h13.105c0.161 0 0.292-0.127 0.292-0.281v-2.248h0.001z"></path></svg>
