<svg xmlns="http://www.w3.org/2000/svg" width="1024" height="1024" viewBox="0 0 1024 1024"><path d="M512 5.632C232.32 5.632 5.632 232.32 5.632 512S232.32 1018.368 512 1018.368 1018.368 791.68 1018.368 512c0-381.632-350.4-506.368-506.368-506.368zM89.728 512c0-218.944 166.656-398.976 380.032-420.096v412.544L189.696 784.512C127.488 710.976 89.728 615.936 89.728 512zM512 934.272c-98.88 0-189.568-34.24-261.504-91.136l286.848-286.848c6.848-6.848 10.176-15.616 11.328-24.512 3.2-6.016 5.504-12.48 5.504-19.776V91.904C767.552 113.088 934.272 293.056 934.272 512c0 233.216-189.056 422.272-422.272 422.272z"/></svg>
