<svg viewBox="0 0 1024 1024" xmlns="http://www.w3.org/2000/svg"><path d="M918.439506 1017.046914H105.560494c-32.869136 0-59.417284-26.548148-59.417284-59.417284V65.106173c0-32.869136 26.548148-59.417284 59.417284-59.417284h812.879012c32.869136 0 59.417284 26.548148 59.417284 59.417284v892.523457c0 32.869136-26.548148 59.417284-59.417284 59.417284z m0-59.417284v29.708642-29.708642zM105.560494 65.106173v892.523457h812.879012V65.106173H105.560494z"></path><path d="M941.195062 300.246914H75.851852c-16.434568 0-29.708642-13.274074-29.708642-29.708642s13.274074-29.708642 29.708642-29.708642h865.34321c16.434568 0 29.708642 13.274074 29.708642 29.708642s-13.274074 29.708642-29.708642 29.708642zM341.333333 756.622222c-6.953086 0-13.906173-2.528395-19.595061-6.953086l-89.125926-75.851852c-14.538272-12.009877-22.755556-30.340741-22.123457-49.303704 0-18.962963 8.849383-36.661728 23.387654-48.671605l94.814815-77.116049c12.641975-10.11358 31.604938-8.217284 41.718519 4.424691 10.11358 12.641975 8.217284 31.604938-4.424692 41.718519L271.802469 621.985185v6.320988l89.125926 75.851852c12.641975 10.745679 13.906173 29.708642 3.160494 41.718518a29.076543 29.076543 0 0 1-22.755556 10.745679zM668.760494 747.77284c-8.217284 0-16.434568-3.792593-22.755556-10.74568-10.745679-12.641975-9.481481-30.97284 3.160494-41.718518l89.125926-75.851852 18.962963-29.708642-18.962963 23.387654-94.814815-77.116049c-12.641975-10.11358-14.538272-29.076543-4.424691-41.718518 10.11358-12.641975 29.076543-14.538272 41.718518-4.424692l94.814815 77.11605c14.538272 12.009877 23.387654 29.708642 23.387655 48.671605s-8.217284 37.293827-22.123457 49.303703l-89.125926 75.851852c-5.05679 5.05679-12.009877 6.953086-18.962963 6.953087zM455.111111 825.520988c-2.528395 0-5.688889-0.632099-8.217284-1.264198-15.802469-4.424691-24.651852-21.491358-20.22716-37.293827l106.824691-360.296296c4.424691-15.802469 20.859259-24.651852 37.293827-20.227161 15.802469 4.424691 24.651852 21.491358 20.227161 37.293827l-106.824692 360.296297c-4.424691 13.274074-15.802469 21.491358-29.076543 21.491358z"></path></svg>