<svg xmlns="http://www.w3.org/2000/svg" viewBox="0 0 1024 1024"><polygon points="960.158,193.975 960.158,193.725 704.158,193.725 704.158,257.725 896.325,257.725 896.325,959.75 64,959.75  	64,257.725 256,257.725 256,193.725 0,193.725 0,193.75 0,257.725 0,959.75 0,1024 64,1024 896.325,1024 896.325,1024 960.325,1024  	960.325,193.975 "/><polygon points="299.399,331.147 480.419,512.166 525.674,466.911 525.673,466.911 661.604,330.981 616.349,285.726 512.585,389.49  	512.585,0 448.585,0 448.585,389.823 344.654,285.892 "/><rect x="256.008" y="576.007" width="447.986" height="64"/><rect x="256" y="768.001" width="447.994" height="64"/></svg>