<svg xmlns="http://www.w3.org/2000/svg" viewBox="0 0 16 16"><path d="M15.188 6.288h-1.405c-0.132-0.285-0.32-0.879-0.56-1.302l0.992-0.964c0.313-0.313 0.314-0.806 0.001-1.119l-1.132-1.126c-0.313-0.313-0.82-0.309-1.133 0.004l-0.937 0.994c-0.422-0.24-1.016-0.426-1.301-0.559v-1.404c0-0.443-0.469-0.801-0.911-0.801h-1.603c-0.442 0-0.911 0.358-0.911 0.801v1.405c-0.285 0.132-0.879 0.32-1.301 0.56l-0.965-0.992c-0.313-0.314-0.806-0.314-1.118-0.001l-1.126 1.133c-0.312 0.312-0.31 0.819 0.004 1.133l0.994 0.937c-0.24 0.423-0.426 1.016-0.559 1.301h-1.405c-0.443 0-0.802 0.469-0.802 0.911v1.602c0 0.442 0.358 0.911 0.802 0.911h1.405c0.132 0.285 0.32 0.878 0.56 1.301l-0.992 0.965c-0.313 0.313-0.313 0.806-0.001 1.119l1.132 1.126c0.312 0.312 0.82 0.309 1.133-0.004l0.937-0.994c0.423 0.24 1.016 0.426 1.301 0.559v1.405c0 0.443 0.469 0.801 0.911 0.801h1.602c0.442 0 0.911-0.358 0.911-0.802v-1.405c0.285-0.132 0.878-0.32 1.302-0.56l0.964 0.992c0.313 0.313 0.806 0.313 1.118 0.001l1.126-1.132c0.312-0.313 0.309-0.82-0.004-1.133l-0.994-0.937c0.24-0.423 0.426-1.016 0.559-1.301h1.405c0.443 0 0.801-0.469 0.801-0.911v-1.603c0.001-0.442-0.357-0.911-0.8-0.911v0 0zM8 11.603c-1.99 0-3.603-1.613-3.603-3.603s1.613-3.603 3.603-3.603c1.991 0 3.603 1.613 3.603 3.603s-1.613 3.603-3.603 3.603v0 0z"></path></svg>
