<svg width="12px" height="12px" viewBox="0 0 12 12"  xmlns="http://www.w3.org/2000/svg"><path d="M8.45925,3.552 C8.238,3.331125 7.87875,3.331125 7.6575,3.552 L5.994375,5.215125 L4.397625,3.618375 C4.18275,3.403125 3.834,3.403125 3.61875,3.618375 C3.403875,3.83325 3.403875,4.182 3.61875,4.39725 L5.215875,5.994 L3.552375,7.6575 C3.3315,7.87875 3.3315,8.237625 3.552375,8.4585 C3.774,8.680125 4.132875,8.680125 4.354125,8.4585 L6.01725,6.79575 L7.623375,8.401125 C7.83825,8.616375 8.187,8.616375 8.401875,8.401125 C8.61675,8.18625 8.61675,7.8375 8.401875,7.622625 L6.796125,6.016875 L8.45925,4.35375 C8.680125,4.1325 8.680125,3.773625 8.45925,3.552 M6,12 C2.6865,12 0,9.3135 0,6 C0,2.686125 2.6865,0 6,0 C9.313875,0 12,2.686125 12,6 C12,9.3135 9.313875,12 6,12"></path></svg>
