<svg xmlns="http://www.w3.org/2000/svg" viewBox="0 0 1024 1024"><path d="M512,0C229.2,0,0,229.2,0,512s229.2,512,512,512s512-229.2,512-512S794.8,0,512,0z M570.9,560	c4.1,50.7-33.6,95.2-84.4,99.3s-95.2-33.6-99.3-84.4c-4.1-50.7,33.6-95.2,84.4-99.3c0.5,0,0.9-0.1,1.4-0.1L636.2,384L570.9,560z M876.8,529.9c-20.1,0-36.5-16.3-36.5-36.5c0-181.5-147.1-328.6-328.6-328.6S183,311.9,183,493.4c0,20.1-16.3,36.5-36.5,36.5	c-20.1,0-36.5-16.3-36.5-36.5c0,0,0,0,0,0C101.2,271.6,273.8,84.7,495.6,75.8s408.8,163.8,417.6,385.6c0.4,10.7,0.4,21.4,0,32.1	C913.3,513.6,896.9,529.9,876.8,529.9z"/></svg>
