<svg xmlns="http://www.w3.org/2000/svg" viewBox="0 0 1024 1024"><g><path d="M983.8,312.7C958,251.7,921,197,874,150S772.3,66,711.3,40.3C648.2,13.5,581.1,0,512,0S375.8,13.5,312.7,40.3	C251.7,66,197,103,150,150S66,251.7,40.3,312.7C13.5,375.8,0,442.9,0,512s13.5,136.2,40.3,199.3C66,772.3,103,827,150,874	s101.8,83.9,162.7,109.7c63.1,26.7,130.2,40.3,199.3,40.3s136.2-13.5,199.3-40.3C772.3,958,827,921,874,874s83.9-101.8,109.7-162.7	c26.7-63.1,40.3-130.2,40.3-199.3S1010.5,375.8,983.8,312.7z M768,512c0,35.346-28.654,64-64,64H320c-35.346,0-64-28.654-64-64v0	c0-35.346,28.654-64,64-64h384C739.346,448,768,476.654,768,512L768,512z"/></g></svg>