<svg xmlns="http://www.w3.org/2000/svg" width="1024" height="1024" viewBox="0 0 1024 1024"><path d="M972.672 731.776L749.504 508.608l203.84-203.904c12.928-12.928 20.48-29.888 21.184-47.744.704-18.432-5.888-35.584-18.56-48.32L815.36 67.968c-12.096-12.032-28.288-18.624-45.696-18.624-18.496 0-36.864 7.744-50.368 21.184L515.392 274.432 292.288 51.328C279.744 38.848 263.168 32 245.504 32s-34.24 6.912-46.72 19.392L51.328 198.784C38.848 211.264 32 227.904 32 245.504c0 17.664 6.912 34.24 19.328 46.72l146.304 146.304h.064l76.736 76.736-169.984 169.92c-.256.256-.192.768-.448 1.024-2.624 2.88-4.736 6.336-5.44 10.496L58.496 940.992c-.192 1.28.768 2.176.832 3.392 0 1.216-1.024 2.176-.832 3.456.32 1.984 1.92 3.072 2.752 4.8.896 2.048 1.536 3.776 3.072 5.376 2.176 2.432 4.8 3.712 7.872 4.928 1.408.576 2.176 2.048 3.776 2.304 1.088.192 2.304.256 3.392.256h.064c1.152 0 2.24-.128 3.392-.256l244.288-40.128c2.304-.384 3.52-2.368 5.44-3.392 1.984-1.024 4.416-.832 6.08-2.496l169.92-169.92 76.736 76.8h.064l75.904 75.968h.064l70.336 70.336c12.416 12.48 29.056 19.392 46.656 19.392 17.664 0 34.24-6.912 46.72-19.392l147.52-147.456c12.48-12.48 19.328-29.056 19.328-46.72.128-17.408-6.72-33.984-19.2-46.464zM749.184 100.48c5.632-5.632 13.056-8.832 20.48-8.832 6.208 0 11.712 2.24 15.744 6.272L926.08 238.592c4.288 4.224 6.464 10.24 6.272 16.704-.256 7.168-3.456 14.08-8.896 19.52l-68.864 68.864L680.32 169.408l68.864-68.928zM242.496 423.616l97.344-97.344c8.256-8.256 8.256-21.632 0-29.888s-21.632-8.256-29.888 0l-97.344 97.344-46.08-46.144 97.344-97.344c8.256-8.256 8.256-21.632 0-29.888s-21.632-8.256-29.952 0l-97.28 97.344-55.36-55.36c-4.48-4.48-6.976-10.432-6.976-16.832-.064-6.336 2.496-12.288 6.976-16.768L228.736 81.28a23.73 23.73 0 0 1 16.832-6.976c6.4 0 12.352 2.496 16.832 6.976l223.168 223.104-181.12 181.12-61.952-61.888zm231.744-48.128l56.128-56.128v-.064l120-120L824.64 373.568 323.648 874.56 149.376 700.224 474.24 375.488zM133.696 744.384L279.552 890.24l-174.528 28.672 28.672-174.528zm809.024 50.88L795.264 942.72c-4.48 4.48-10.432 6.976-16.832 6.976-6.336 0-12.288-2.496-16.768-6.976l-55.424-55.424 97.344-97.344c8.256-8.256 8.256-21.632 0-29.888s-21.632-8.256-29.952 0l-97.344 97.344-46.08-46.08 97.344-97.344c8.256-8.256 8.256-21.632 0-29.888s-21.632-8.256-29.888 0l-97.28 97.344-61.824-61.824 181.12-181.12 223.104 223.168c4.48 4.48 6.976 10.432 6.976 16.832 0 6.336-2.56 12.288-7.04 16.768z"/></svg>