<svg xmlns="http://www.w3.org/2000/svg" viewBox="0 0 1024 1024"><path d="M548,192A283.71,283.71,0,0,1,831.95,470.8l.63,35.42,30.35,18.27A199.85,199.85,0,0,1,960,696,200,200,0,0,1,760,896H328v-1l-65,1-1.16,0L260,896A195.9,195.9,0,0,1,107.23,577.2,196.8,196.8,0,0,1,215.63,509l45.49-10.51L265,452A284,284,0,0,1,548,192m0-64c-182.32,0-331.88,140.2-346.77,318.67C85.94,473.31,0,576.62,0,700,0,843.59,116.41,960,260,960c1.34,0,2.67,0,4-.05V960H760c145.8,0,264-118.2,264-264A263.85,263.85,0,0,0,895.94,469.65C892.55,280.39,738.07,128,548,128Z"/><polygon points="681.37 545.37 576 650.75 576 384 512 384 512 650.75 406.63 545.37 361.37 590.63 544 773.25 726.63 590.63 681.37 545.37"/></svg>