<svg viewBox="0 0 1024 1024" width="1024" height="1024"><path d="M921.92 566.08C891.968 566.336 862.016 566.272 832 566.208l0-374.4C832 156.544 803.52 128 768.32 128L255.744 128C221.184 128 192 156.544 192 191.808l0 374.4c-30.272 0-60.544 0.192-90.816-0.128C83.52 565.952 71.04 571.84 64.896 588.608l0 285.568c6.336 17.28 19.328 22.528 37.248 22.528 273.28-0.256 546.56-0.256 819.84 0 17.856 0.064 30.848-5.312 37.184-22.528L959.168 588.608C952.832 571.392 939.904 565.952 921.92 566.08zM692.16 592.384c-12.224 19.136-24.448 38.272-36.544 57.408-11.2 17.6-27.136 26.624-48.448 26.56-68.416-0.128-136.832-0.064-205.184 0-20.672 0-36.224-8.96-47.168-25.792-12.16-18.816-24.064-37.824-35.968-56.768-11.712-18.624-28.864-27.52-50.88-27.52-3.968 0-8 0-11.968 0L256 192l512 0 0 374.336c-9.28 0-18.432 0-27.712 0.064C719.744 566.528 703.296 574.976 692.16 592.384z" p-id="2866"></path><path d="M672.576 384 351.424 384C334.592 384 320 398.272 320 416 320 433.088 334.08 448 351.424 448l321.152 0C689.344 448 704 433.664 704 416 704 398.848 689.92 384 672.576 384z"></path><path d="M672.576 256 351.424 256C334.592 256 320 270.272 320 288 320 305.088 334.08 320 351.424 320l321.152 0C689.344 320 704 305.664 704 288 704 270.848 689.92 256 672.576 256z"></path></svg>
