<svg xmlns="http://www.w3.org/2000/svg" width="16" height="16" viewBox="0 0 16 16"><path d="M11.838 16.01H2.009c-.799 0-1.448-.66-1.448-1.475V2.417c0-.814.345-1.282 1.145-1.282h8.01c.618 0 .618 1.144 0 1.144h-8.01c-.256 0 0-.261 0 0v12.586c0 .261.888 0 1.144 0h9.154c.257 0 0 .261 0 0V5.712c0-.63 1.144-.63 1.144 0v9.154c.001.814-.51 1.144-1.31 1.144zM9.801 5.719a.527.527 0 0 1 0-.706L14.596.128a.505.505 0 0 1 .694 0c.166.184.196.384.075.599l-.075.108-4.795 4.884a.503.503 0 0 1-.694 0zM7.427 6.856H2.851c-.618 0-.618-1.144 0-1.144h4.577c.619 0 .204 1.29-.414 1.29l.413-.146zm2.289 3.433H2.851c-.618 0-.618-1.144 0-1.144h6.865c.618 0 .618 1.144 0 1.144z"/></svg>
