<svg viewBox="0 0 1024 1024" xmlns="http://www.w3.org/2000/svg"><path d="M905.774545 270.491152l-234.55806-229.31394A144.911515 144.911515 0 0 0 593.020121 1.861818L189.47103 0.558545C110.840242 0.558545 77.886061 32.178424 77.886061 109.350788v812.09406c5.15103 72.859152 36.119273 101.779394 111.584969 101.779394H834.404848c78.81697 0 111.802182-31.619879 111.802182-108.761212V345.894788l-1.272242-3.816727a135.726545 135.726545 0 0 0-39.191273-71.586909z m-67.335757 34.598787h-156.175515c-27.306667 0-49.710545-21.938424-49.710546-48.934787v-152.979394l205.886061 201.914181z m-4.12703 656.973576H189.502061c-26.499879-0.310303-48.252121-21.131636-48.469334-47.507394V109.443879c0.217212-26.065455 21.969455-47.166061 48.469334-47.166061H569.406061v193.877334c0 78.196364 32.985212 110.219636 112.857212 110.219636h200.73503v548.181333c0 26.375758-21.969455 47.166061-48.686545 47.476364z"></path><path d="M755.277576 680.649697H300.06303c-26.499879 0-47.631515 5.12-47.631515 30.75103 0 25.444848 21.131636 30.75103 47.631515 30.751031h455.214546c25.662061 0 47.010909-5.275152 47.010909-30.72 0.093091-25.662061-21.255758-30.782061-46.979879-30.782061zM290.474667 494.592c-20.48 0-37.91903 5.709576-37.919031 30.844121 0 25.755152 17.43903 30.844121 37.919031 30.844121h360.044606c20.697212 0 37.515636-5.08897 37.515636-30.844121 0-25.134545-16.818424-30.844121-37.608727-30.844121H290.443636z"></path></svg>
