<svg viewBox="0 0 1024 1024" width="1024" height="1024"><path d="M477.5 901.8H223c-1.8 0-3 0-4.8-0.6 8.4 1.2 3 0.6 1.2 0-3.6-0.6-6.6-1.2-10.3-2.4-3-0.6-5.4-1.8-8.4-3-5.4-1.8 6 2.4 1.2 0.6-1.2-0.6-2.4-1.2-4.2-1.8-2.4-1.2-5.4-3-7.8-4.2-1.8-1.2-11.5-8.4-4.2-2.4-4.8-3.6-9.1-7.8-12.7-12.1-1.2-1.2-1.8-2.4-3-3.6-3.6-4.2 3.6 5.4 0.6 0.6-1.8-3-3.6-5.4-5.4-8.4-1.2-2.4-3-5.4-4.2-7.8-0.6-1.8-3-6.6 0.6 1.2-0.6-1.2-1.2-3-1.8-4.2-2.4-6-3.6-12.7-4.8-19.3 1.2 9.7 0-1.2 0-3.6V825.4v-10.3V762 571.3v-219-145.4-13.3-1.8-6c0-1.8 0-3 0.6-4.8 0.6-6-1.2 6.6 0 1.2 1.2-6.6 3-12.7 4.8-19.3 0.6-1.8 3-6.6-0.6 1.2 0.6-1.2 1.2-2.4 1.8-4.2 1.2-2.4 3-5.4 4.2-7.8 1.2-2.4 3-4.8 4.8-7.2 3-4.2-4.2 4.8-0.6 0.6 1.2-1.8 2.4-3 3.6-4.2 1.8-2.4 4.2-4.2 6-6 1.8-1.2 9.7-7.8 2.4-2.4 4.8-3.6 10.3-7.2 16.3-10.3 1.2-0.6 2.4-1.2 4.2-1.8-7.8 3.6-2.4 1.2-1.2 0.6 3-1.2 5.4-1.8 8.4-3 3-0.6 6-1.2 9.1-1.8 1.8-0.6 7.2-1.2-1.2 0 1.8 0 4.2-0.6 6-0.6h573.1c3 0 6 0 9.1 0.6 5.4 0.6-6.6-1.2-1.2 0 1.8 0.6 4.2 0.6 6 1.2 3 0.6 6 1.2 8.4 2.4 2.4 0.6 12.1 4.8 3 1.2 6 2.4 11.5 6 16.9 9.7 1.2 0.6 2.4 1.8 3.6 2.4-6.6-4.8-2.4-1.8-0.6-0.6 2.4 1.8 4.2 3.6 6.6 6 1.8 1.8 4.2 4.2 6 6.6 1.2 1.2 4.2 6-0.6-0.6 1.2 1.8 2.4 3 3.6 4.8 3 4.8 6 10.3 8.4 15.7-3.6-8.4 0 1.2 1.2 3.6 1.2 3.6 1.8 6.6 2.4 10.3 0.6 1.2 0.6 3 0.6 4.2 1.2 5.4-0.6-6.6 0-1.2 0.6 3 0.6 6 0.6 9.7v386.7c0 14.5 12.1 27.2 27.2 27.2 14.5 0 27.2-12.1 27.2-27.2V447.8 240.2v-45.9c0-23.5-6.6-47.1-18.7-67.6-15.7-26.5-39.8-45.3-68.2-56.1-18.7-7.2-38.6-7.2-58.5-7.2H248.8c-17.5 0-34.4 0-51.3 4.2-56 14.2-96.5 67.9-96.5 126.4v629.8c0 38 13.9 74.8 42.2 100.2 22.9 21.1 51.9 32.6 82.7 34.4 6 0.6 12.1 0 18.1 0H478.1c14.5 0 27.2-12.1 27.2-27.2-0.6-16.7-12.7-29.4-27.8-29.4z m401.3-203.9c-35 36.8-70 73.6-104.4 109.8-32.6 33.8-64.6 68.2-97.1 102h38c-25.9-23.5-52.5-47.1-78.4-70.6-10.9-9.7-27.2-10.9-38 0-9.7 10.3-10.9 28.4 0 38.6 25.9 23.5 52.5 47.1 78.4 70.6 10.9 9.7 27.8 10.9 38 0 35-36.8 70-73.6 104.4-109.8 32.6-33.8 64.6-68.2 97.1-102 10.3-10.9 10.3-27.8 0-38.6-10.2-10.3-27.7-10.3-38 0zM337.6 320.7h350.6c14.5 0 27.2-12.1 27.2-27.2 0-14.5-12.1-27.2-27.2-27.2H337.6c-14.5 0-27.2 12.1-27.2 27.2 0.6 15.2 12.7 27.2 27.2 27.2z m0 211.8h350.6c14.5 0 27.2-12.1 27.2-27.2 0-14.5-12.1-27.2-27.2-27.2H337.6c-14.5 0-27.2 12.1-27.2 27.2 0.6 15.2 12.7 27.2 27.2 27.2z m0 211.8h140c14.5 0 27.2-12.1 27.2-27.2 0-14.5-12.1-27.2-27.2-27.2h-140c-14.5 0-27.2 12.1-27.2 27.2 0.6 15.1 12.7 27.2 27.2 27.2z"></path><path d="M232 959.8c-2 0-4.1-0.1-6.1-0.3-31.9-1.9-60.7-13.9-83.2-34.7C115.2 900.3 100 864.5 100 824V194c0-59.4 40.9-113.1 97.3-127.7 17-4.3 33.8-4.3 51.5-4.3h531c19.7 0 40 0 58.9 7.3 29.8 11.4 53.6 31 68.7 56.5 12.3 21 18.8 44.5 18.8 68.1v384.4c0 15.3-12.9 28.2-28.2 28.2s-28-12.9-28-28.1V191.6c0-2.5 0-4.7-0.2-6.8-0.1-0.4-0.3-0.9-0.4-1.4v-0.2-1.4c0-0.3-0.1-0.6-0.1-0.9-0.1-0.6-0.2-1.1-0.4-1.5l-0.1-0.3c-0.6-3.7-1.2-6.6-2.4-10-0.3-0.6-2.2-4.6-2.7-6.8-1.9-4-4.3-8.2-6.9-12.4-0.3-0.5-0.6-0.9-0.9-1.3-0.3-0.3-0.7-0.8-1.4-1.7-0.4-0.5-0.8-1.1-1.3-1.7l0.1-0.1c-1.7-2.1-3.8-4.2-5.4-5.8-2.1-2.1-3.8-3.8-5.7-5.3v0.1c-0.7-0.3-1.3-0.8-2-1.3-0.6-0.4-1.1-0.9-1.7-1.1l-0.1-0.1c-5.3-3.5-10.8-7.2-16.7-9.6l0.1-0.1c-1.2-0.5-2.3-0.9-2.9-1l-0.2-0.1c-2.3-1.1-5.3-1.7-8.2-2.3h-0.1c-0.8-0.3-1.8-0.4-2.8-0.6-1.1-0.2-2.2-0.3-3.1-0.6-0.6-0.1-1-0.2-1.4-0.4-2.1-0.2-4.2-0.2-6.2-0.2H223.5c-0.8 0-1.9 0.1-2.9 0.3-0.5 0.1-0.9 0.1-1.4 0.2-0.1 0-0.2 0-0.2 0.1h-0.1l-9 1.8c-1.5 0.6-2.9 1.1-4.2 1.5-1.3 0.4-2.7 0.9-4.2 1.5-2.3 1.2-3.1 1.5-3.5 1.4-4.1 2.1-8.2 4.6-12.5 7.6-1.1 1.5-4.9 4.2-5.5 4.7-0.6 0.6-1.2 1.1-1.9 1.7-1.4 1.3-2.8 2.6-4 4.1l-0.1 0.1c-0.7 0.7-1.4 1.4-2.1 2.2-0.2 0.4-0.5 0.8-0.8 1.3-1.8 2.4-3.6 4.8-4.7 7.1-0.6 1.2-1.4 2.6-2.1 4-0.7 1.2-1.3 2.4-1.9 3.5 0 0.1-0.1 0.2-0.1 0.3v0.1c-0.1 0.3-0.3 0.7-0.5 1.2-0.2 0.6-0.5 1.2-0.7 1.7-0.3 1.1-0.6 2.3-0.9 3.4-1.5 5.3-2.9 10.3-3.8 15.7-0.2 0.8-0.3 1.4-0.6 1.8v646.6c0 1 0.2 3.5 0.4 5.3v0.4c1.1 5.7 2.3 11.6 4.3 16.8 0.3 0.6 0.6 1.4 0.9 2.1 0.2 0.4 0.4 0.9 0.5 1.3 0.1 0.1 0.1 0.3 0.2 0.4 0.5 1 1.1 2 1.6 3 0.7 1.3 1.5 2.7 2.1 4 0.9 1.4 1.8 2.8 2.7 4.1 0.9 1.3 1.8 2.7 2.7 4.3l0.1 0.1c0.3 0.3 0.5 0.7 0.8 1 0.4 0.6 0.9 1.2 1.4 1.7 3 3.5 6.1 6.7 9.3 9.3 0.6 0.1 1.8 0.9 5 3.2 1 0.7 2 1.4 2.4 1.7 1.2 0.6 2.6 1.4 3.9 2.1 1.3 0.7 2.6 1.5 3.8 2.1 1.2 0.4 2.1 0.8 2.9 1.2 0.7 0.3 1.4 0.6 2 0.8 2.2 0.9 4 1.7 6.3 2.1h0.1c3.5 1.2 6.3 1.7 10.1 2.4h0.2c0.5 0.2 1.2 0.3 1.9 0.4 0.2 0 0.5 0.1 0.7 0.1h255.4c15.8 0 28.1 13.1 28.8 30.5 0 15.3-12.9 28.2-28.2 28.2H244c-2 0-4 0.1-6 0.1-2 0.4-4 0.5-6 0.5z m16.9-895.7c-17.6 0-34.3 0-51 4.2C142.3 82.6 102 135.5 102 194v630c0 40 14.9 75.3 41.9 99.4 22.2 20.5 50.6 32.3 82.1 34.1 4 0.4 8.1 0.3 12 0.1 2-0.1 4-0.1 6.1-0.1h234.1c14.2 0 26.2-12 26.2-26.2-0.6-16.3-12.1-28.6-26.8-28.6H222.5h-0.1c-0.2 0-0.4 0-0.7-0.1-1.3 0-2.4-0.1-3.9-0.6v-0.2c-3.2-0.6-5.9-1.2-9-2.2-1.9-0.4-3.5-1-5.2-1.7l-1-0.3c-2.9-1-4.1-1.5-4.5-1.9l-0.9-0.3-0.1-0.1c-1.2-0.6-2.6-1.4-4-2.1-1.3-0.7-2.7-1.5-3.9-2.1l-0.1-0.1c-0.5-0.3-1.5-1-2.6-1.8-0.4-0.3-0.9-0.7-1.4-1l-0.3 0.4c-4.4-3.3-8.7-7.4-12.8-12.2-0.4-0.4-0.8-0.8-1.1-1.3-0.6-0.1-1.3-1-2.3-2.4-0.6-0.9-1.1-1.6-0.8-2.1-0.3-0.5-0.7-1-1-1.5-0.9-1.3-1.8-2.7-2.7-4.3-0.6-1.3-1.4-2.6-2.1-4-0.5-0.9-1-1.9-1.5-2.8-0.1-0.1-0.1-0.3-0.2-0.4-0.1-0.3-0.3-0.5-0.4-0.8l-0.1-0.1c0-0.1-0.1-0.3-0.1-0.4-0.6-1.2-0.9-2-1.1-2.4v-0.1c-0.1-0.2-0.1-0.4-0.1-0.5-1.8-4.6-2.9-9.6-3.8-14.5-0.3-0.3-0.4-0.9-0.5-1.5-0.1-0.6-0.2-1.6-0.4-3.1h0.2c-0.1-1.5-0.2-3-0.2-3.7v-645c0-1.3 0-2.4 0.3-3.7 0.1-0.6 0.2-1.3 0.3-2.3 0.1-0.6 0.2-1.3 0.8-1.5 0.9-4.1 2-8.1 3.2-12.3 0.2-0.8 0.4-1.5 0.6-2.3l-0.2-0.1c0.3-0.6 0.5-1.1 0.7-1.6 0.4-1.1 0.7-1.8 1-2.3 0-0.1 0.1-0.2 0.1-0.3l0.1-0.1c0.6-1.2 1.4-2.6 2.1-4 0.7-1.3 1.5-2.7 2.1-3.9 0.8-1.6 1.9-3.3 3.1-4.9 0-0.5 0.3-1 0.7-1.5 0.8-1 1.4-1.7 1.8-2.2 0.8-1 1.6-1.8 2.4-2.6 1.3-1.7 2.8-3.1 4.2-4.4 0.7-0.6 1.3-1.2 1.9-1.7l0.2-0.1c0.6-0.4 1.6-1.2 2.6-2l-0.3-0.3 0.1-0.1c0.9-0.7 1.6-1.2 2.1-1.6 4.9-3.5 9.6-6.4 14.2-8.7 1.2-0.6 2.5-1.2 4.4-1.9v0.1c1.1-0.4 2-0.7 3-1 1.3-0.4 2.7-0.9 4.2-1.5l0.2-0.1 7.9-1.6v-0.2c1-0.1 1.8-0.3 2.4-0.4 0.6-0.2 1.4-0.3 2-0.3h0.1c0.3 0 0.5 0 0.7 0.1H797c2.1 0 4.2 0 6.3 0.2 0.6-0.1 1.8 0.1 3.7 0.4 0.5 0.1 1.2 0.2 1.4 0.7 0.9 0.1 1.9 0.3 2.7 0.6 3 0.6 6.1 1.2 8.6 2.4 0.9 0.3 6.5 2 7.3 3.2 4.2 2.1 8.2 4.8 12.1 7.4 0.2 0 0.5 0.1 0.8 0.3 0.3 0.2 0.6 0.4 1 0.7 0.6 0.4 1.3 0.9 1.9 1.3 2.5 1.9 4.4 3.8 6.8 6.2 1.8 1.8 4.2 4.2 6.1 6.7 0.3 0.3 1.7 1.9 2.1 3 0.3 0.4 0.6 0.8 0.9 1.3 2.6 4.1 4.9 8.2 6.8 12.2 0.3 0.4 0.7 1.3 1.7 3.7l-0.3 0.1c0.5 1.3 1.1 2.7 1.5 3.4l0.1 0.1c1.2 3.5 1.8 6.6 2.4 10.3 0.2 0.5 0.4 1 0.5 1.6 0.1 0.3 0.1 0.6 0.2 0.8 0.3 1.9 0.5 3.1 0.4 3.7 0.2 2.1 0.2 4.4 0.2 6.9v386.8c0 14.2 12 26.2 26.2 26.2s26.2-12 26.2-26.2V194c0-23.2-6.4-46.4-18.6-67.1-14.9-25.2-38.3-44.4-67.7-55.7-18.5-7.2-38.7-7.2-58.2-7.2H248.9zM697 957c-7.1 0-14.4-2.7-20.4-8-13-11.8-26.3-23.7-39.2-35.3-12.9-11.6-26.2-23.5-39.2-35.3-11.8-11.1-9.5-30-0.1-40 10.6-10.6 27.5-10.6 39.4-0.1 13 11.8 26.3 23.7 39.2 35.3 6 5.4 12.1 10.8 18.2 16.3 10.2-10.7 20.3-21.4 30.2-31.9 15.9-16.8 32.3-34.1 48.6-51 34.4-36.2 69.4-73 104.4-109.8 10.7-10.7 28.7-10.7 39.4 0 10.6 11.2 10.6 28.8 0 40-16.3 16.9-32.7 34.3-48.6 51-15.9 16.7-32.3 34.1-48.5 51-33.3 35.1-67.3 70.8-101.2 106.5l-3.2 3.4c-5.1 5.2-11.9 7.9-19 7.9z m-79.6-124.6c-6.5 0-12.9 2.4-17.8 7.4-8.8 9.3-10.9 26.9 0 37.2 13 11.8 26.3 23.7 39.2 35.3 12.9 11.6 26.2 23.5 39.2 35.3 9.8 8.7 26.2 11.1 36.6 0.1l3.2-3.4c33.9-35.7 67.8-71.4 101.2-106.5 16.3-16.9 32.7-34.2 48.5-50.9 15.9-16.8 32.3-34.1 48.6-51 9.9-10.4 9.9-26.8 0-37.2-9.9-9.9-26.7-9.9-36.6 0-35 36.8-70 73.6-104.4 109.8-16.3 16.9-32.7 34.2-48.6 51-9.9 10.5-20 21.2-30.2 31.8 6.6 5.9 13.1 11.8 19.6 17.7l1.9 1.7h-43l1.6-1.7c5.6-5.8 11.3-11.7 16.9-17.6-6.1-5.5-12.1-10.9-18.1-16.2-12.9-11.6-26.2-23.5-39.2-35.3-5.4-5-12.1-7.5-18.6-7.5z m62.2 76.2h33.1c-5.9-5.3-11.8-10.7-17.7-16-5.2 5.4-10.3 10.7-15.4 16zM477.5 745.3h-140c-14.9 0-27.5-12.6-28.2-28.1 0-15.3 12.9-28.2 28.2-28.2h140c15.3 0 28.2 12.9 28.2 28.2s-12.9 28.1-28.2 28.1zM337.6 691c-14.2 0-26.2 12-26.2 26.2 0.6 14.4 12.3 26.2 26.2 26.2h140c14.2 0 26.2-12 26.2-26.2s-12-26.2-26.2-26.2h-140z m350.5-157.5H337.6c-14.9 0-27.5-12.6-28.2-28.1 0-15.3 12.9-28.2 28.2-28.2h350.6c15.3 0 28.2 12.9 28.2 28.2s-13 28.1-28.3 28.1z m-350.5-54.3c-14.2 0-26.2 12-26.2 26.2 0.6 14.4 12.3 26.2 26.2 26.2h350.6c14.2 0 26.2-12 26.2-26.2s-12-26.2-26.2-26.2H337.6z m350.5-157.5H337.6c-14.9 0-27.5-12.6-28.2-28.1 0-15.3 12.9-28.2 28.2-28.2h350.6c15.3 0 28.2 12.9 28.2 28.2-0.1 15.2-13 28.1-28.3 28.1z m-350.5-54.3c-14.2 0-26.2 12-26.2 26.2 0.6 14.4 12.3 26.2 26.2 26.2h350.6c14.2 0 26.2-12 26.2-26.2s-12-26.2-26.2-26.2H337.6z"></path></svg>
