<svg viewBox="0 0 1024 1024" xmlns="http://www.w3.org/2000/svg"><path d="M975.984 230.48a99.472 99.472 0 0 0-99.36-99.36H684.512c-0.832 0-1.52 0.416-2.352 0.48a32.032 32.032 0 0 0-10.416 2.096c-0.464 0.208-0.832 0.608-1.296 0.832a32.256 32.256 0 0 0-9.248 5.92c-17.152 16.576-25.968 49.568-35.744 90.992-1.344 5.744-2.48 10.704-3.648 15.024-1.472 5.968-4.192 17.056-28.208 17.056-2.88 0-13.024 0.096-15.728 0.096H147.296c-54.784 0-99.376 44.592-99.28 101.92l33.024 428.016a99.472 99.472 0 0 0 99.36 99.36h662.416c54.768 0 99.36-44.576 99.264-96.8m-66.128-2.592a33.12 33.12 0 0 1-33.12 33.12H180.416c-18.256 0-33.12-14.816-33.232-35.648L114.176 362.944c0-18.24 14.88-33.104 33.12-33.104h430.576c2.88 0 12.992-0.096 15.728-0.096 47.52 0 82.096-25.216 92.336-66.768 1.088-4.144 2.448-9.808 4.016-16.368 2.512-10.72 8.288-35.136 13.2-49.264h173.456c18.272 0 33.12 14.88 33.12 33.136v2.336c0 0.144-0.064 0.24-0.064 0.384l-33.712 560.32z"></path><path d="M114.176 197.328h430.576a33.104 33.104 0 1 0 0-66.224H114.176a33.12 33.12 0 0 0 0 66.224z"></path></svg>
