<svg xmlns="http://www.w3.org/2000/svg" viewBox="0 0 1024 1024"><path d="M665.5 992c-18.6 0-36.7-7.6-48.4-20.4-15.9-17.3-66.4-62.5-107.7-62.5-41 0-92.3 45.4-107 61.2-11.7 12.6-29.7 20.1-48.1 20.1-8.8 0-17.1-1.7-24.6-5l-1.3-.6-125.6-69.7-1.2-.9c-22.8-15.9-31.6-47-20.2-72.3.1-.2 11.6-26.5 11.6-50.6 0-72.9-59.7-132.2-133.2-132.2h-5.2c-21 0-38.1-18.6-43.6-47.3-.7-2.1-11-56.5-11-99.4 0-42.9 10.3-97.3 10.7-99.6 5.5-29.1 23-47.7 44.4-47.2h4.4c73.4 0 133.2-59.3 133.2-132.2 0-24-11.5-50.3-11.6-50.6-11.3-25.3-2.6-56.4 20.4-72.2l1.3-.9 132.6-72.3 1.4-.6c7.5-3.2 15.6-4.8 24.3-4.8 18.4 0 36.4 7.4 48.2 19.7 15.7 16.3 65.3 58.7 105.4 58.7 39.8 0 89.1-41.6 104.7-57.6 11.7-12.1 29.6-19.3 47.8-19.3 8.8 0 17.2 1.7 24.7 4.9l1.3.6 128 70.6 1.2.9c22.9 15.9 31.6 46.9 20.3 72.3-.1.2-11.6 26.6-11.6 50.6 0 72.9 59.7 132.2 133.1 132.2h4.4c21.4-.5 38.9 18.1 44.4 47.2.4 2.3 10.7 56.7 10.7 99.6 0 42.9-10.3 97.3-10.8 99.6-5.5 29.1-23 47.7-44.4 47.2h-4.4c-73.4 0-133.1 59.3-133.1 132.2 0 24 11.5 50.3 11.6 50.6 11.3 25.3 2.6 56.4-20.4 72.2l-1.3.9L691 986.6l-1.3.6c-7.5 3.2-15.6 4.8-24.2 4.8zm-4-60.9c.6.4 2.2 1 3.9 1h.2l121.6-66.8c-2.9-6.8-16.4-39.6-16.4-73.9 0-102.5 81.3-186.5 183.3-191.8 1.5-8.1 9.4-53.3 9.4-87.3s-8-79.2-9.4-87.3c-102-5.2-183.3-89.3-183.3-191.8 0-34.3 13.5-67.2 16.4-74l-119.7-66h-.5c-2 0-3.9.7-4.6 1.2-2 2-19.4 19.5-44.3 36.9-36.9 25.8-71.7 38.8-103.6 38.8-32.2 0-67.4-13.3-104.5-39.6-25.1-17.7-42.5-35.6-44.5-37.6-.6-.4-2.6-1.2-4.6-1.2h-.4l-124 67.6c3 6.8 16.4 39.6 16.4 73.9 0 102.5-81.3 186.6-183.3 191.8-1.5 8-9.4 53.3-9.4 87.3s8 79.2 9.4 87.3c102 5.2 183.3 89.2 183.3 191.8 0 34.4-13.5 67.4-16.4 74L354 930.6h.3c1.7 0 3.3-.6 3.9-1 2.2-2.3 19.7-20.8 45-39.1 37.6-27.4 73.3-41.2 106.2-41.2 33.2 0 69.2 14.1 107 42 25.4 18.7 42.9 37.4 45.1 39.8zM509.8 687.8c-97.8 0-177.3-79-177.3-176s79.5-176 177.3-176c97.8 0 177.3 79 177.3 176s-79.6 176-177.3 176zm0-292.2c-64.5 0-117 52.1-117 116.2 0 64 52.5 116.2 117 116.2s117-52.1 117-116.2-52.5-116.2-117-116.2z"/></svg>