<svg xmlns="http://www.w3.org/2000/svg" viewBox="0 0 1024 1024"><path d="M512 1024C229.2 1024 0 794.8 0 512S229.2 0 512 0s512 229.2 512 512-229.2 512-512 512zm64-768h-62.7c-.4 0-.9-.3-1.3-.3-.5 0-.9.3-1.4.3H448v60.1c-.1 1.4-.8 2.6-.8 4s.8 2.6.8 4v60h62c.7 0 1.3.4 2 .4s1.3-.4 2-.4h62V324c.1-1.3.8-2.5.8-3.8s-.7-2.5-.8-3.8V256zm39.6 455l-39.6-7V448c0-2.6.3-3.5.4-4.5-.7 1.6-2.3 3.7-7.2 3.7H408.3c-13.6 0-24.6 12.8-24.6 28.7 0 15.8 11.1 28.7 24.6 28.7L448 512v192l-39.7 7c-13.6 0-24.6 12.8-24.6 28.7 0 15.8 11.1 28.7 24.6 28.7h207.3c13.6 0 24.7-12.9 24.7-28.7 0-15.9-11.1-28.7-24.7-28.7z"/></svg>