<svg xmlns="http://www.w3.org/2000/svg" width="1024" height="1024" viewBox="0 0 1024 1024"><path d="M790.656 1.088H233.344c-76.928 0-139.328 62.4-139.328 139.328V883.52c0 76.928 62.4 139.328 139.328 139.328h557.312c76.928 0 139.328-62.4 139.328-139.328V140.416c0-76.928-62.336-139.328-139.328-139.328zM558.464 744.192H279.808c-25.664 0-46.464-20.8-46.464-46.464s20.8-46.464 46.464-46.464h278.656c25.664 0 46.464 20.8 46.464 46.464s-20.8 46.464-46.464 46.464zm0-185.728H279.808c-25.664 0-46.464-20.8-46.464-46.464s20.8-46.464 46.464-46.464h278.656c25.664 0 46.464 20.8 46.464 46.464-.064 25.664-20.8 46.464-46.464 46.464zm185.728-185.792H279.808c-25.664 0-46.464-20.8-46.464-46.464s20.8-46.464 46.464-46.464h464.448c25.664 0 46.464 20.8 46.464 46.464-.064 25.664-20.864 46.464-46.528 46.464z"/></svg>
