<svg xmlns="http://www.w3.org/2000/svg" width="1024" height="1024" viewBox="0 0 1024 1024"><path d="M835.8,352.6c-250.9,0-302.7,99.2-363.5,211.8c-38.5,90.6-106,165.8-192,213.8C193.5,823.7,97.8,849.4,0,853.8l0,0V745.6	l0,0c81.5-4.5,161.1-26.4,233.6-64c66.5-38.4,118.2-98.2,146.6-169.6c32.1-70.6,79.8-132.9,139.5-182.4	c39.5-29.5,84.2-51.2,131.8-64c60-15.5,121.7-23,183.7-22.4V128L1024,298.9L835.8,469.1V352.6z M235.5,343.7	C162.8,304.9,82.4,282.6,0,278.4V170.2c98.1,4,194.1,29.8,281,75.5c47.9,24,89.7,58.6,122.2,101.1L320,414.7	C297.6,384.9,268.7,360.6,235.5,343.7z M836.5,671.4V554.9L1024,725.1L835.8,896V779.5c-122.1,8.9-243.2-28.4-339.2-104.3	l69.1-81.9c77.4,58.3,173.5,86.1,270.1,78.1H836.5z"/></svg>
