<svg xmlns="http://www.w3.org/2000/svg" width="1024" height="1024" viewBox="0 0 1024 1024"><path d="M935.7,704H576v192h122.2c35.3,0,64,28.7,64,64s-28.7,64-64,64H320c-35.3,0-64-28.7-64-64s28.7-64,64-64h128V704H88.3	C40.6,705.1,1.1,667.3,0,619.6c0,0,0,0,0,0v-535C1,36.8,40.6-1,88.3,0c0,0,0,0,0,0h847.4c47.7-1.1,87.2,36.7,88.3,84.4	c0,0,0,0,0,0v535C1023,667.2,983.4,705.1,935.7,704C935.7,704,935.7,704,935.7,704z M871.7,137L729,314.3L565.1,161.9L384,415.4	L238.1,272.7L68.5,500.5l77.4,57l103-138.9l144.6,144l185.6-256l159.4,148.5l209.3-256L871.7,137z"/></svg>
