<svg xmlns="http://www.w3.org/2000/svg" viewBox="0 0 1024 1024"><g><rect x="191.8" y="896" width="640" height="64.1"/><g><polygon points="831.7,299.8 783.7,256.1 644.2,426.1 574.3,362.8 574.4,362.8 565,354.4 532.2,324.7 532,324.9 526,319.5 	405.7,468.5 331,400.5 315.7,386.1 192.1,531.4 239.4,576 321.1,479.9 412.2,563 423.6,549.2 423.8,549.4 440.7,528.4 	453.8,512.4 453.7,512.3 533.2,413.8 650.5,520 670.7,495.4 671,495.7 		"/><path d="M895.6,64L895.6,64L63.9,64v64.5h0v639.7h64.5V768h191.4v64h384.1v-64h256.3v-2.2v-62.3V64H895.6z M895.6,703.5H128.4	v-575h767.2V703.5z"/></g></g></svg>
