<svg xmlns="http://www.w3.org/2000/svg" viewBox="0 0 1024 1024"><g><g><path d="M191.56,512c0,35.313,28.627,63.94,63.94,63.94s63.94-28.627,63.94-63.94c0-35.313-28.627-63.94-63.94-63.94	S191.56,476.687,191.56,512L191.56,512z"/><path d="M448.06,512c0,35.313,28.627,63.94,63.94,63.94s63.94-28.627,63.94-63.94c0-35.313-28.627-63.94-63.94-63.94	S448.06,476.687,448.06,512L448.06,512z"/><path d="M704.56,512c0,35.313,28.627,63.94,63.94,63.94s63.94-28.627,63.94-63.94c0-35.313-28.627-63.94-63.94-63.94	S704.56,476.687,704.56,512L704.56,512z"/></g><g><path d="M512,1024c-69.105,0-136.161-13.542-199.303-40.249c-60.973-25.789-115.725-62.702-162.735-109.713	C102.95,827.028,66.038,772.276,40.248,711.303C13.541,648.161,0,581.105,0,512s13.542-136.161,40.249-199.303	c25.789-60.973,62.702-115.725,109.713-162.735c47.011-47.011,101.763-83.924,162.735-109.713C375.839,13.542,442.895,0,512,0	s136.161,13.542,199.303,40.249c60.973,25.789,115.725,62.702,162.735,109.713c47.011,47.011,83.924,101.763,109.713,162.735	C1010.458,375.839,1024,442.895,1024,512s-13.542,136.161-40.249,199.303c-25.789,60.973-62.702,115.725-109.713,162.735	c-47.011,47.011-101.763,83.924-162.735,109.713C648.161,1010.458,581.105,1024,512,1024z M512,64C264.972,64,64,264.972,64,512	s200.972,448,448,448s448-200.972,448-448S759.028,64,512,64z"/></g></g></svg>