<svg xmlns="http://www.w3.org/2000/svg" viewBox="0 0 1024 1024"><path d="M1012 559L538.1 832.3c-8.1 4.6-17.1 7-26.2 7-9.1 0-18.1-2.3-26.2-7L12 559.1c-11.4-6.6-15.4-21.2-8.8-32.7 6.5-11.5 21-15.5 32.4-8.9l473.8 273.2c1.6.9 3.6.9 5.2 0l473.9-273.3c11.4-6.6 25.9-2.6 32.4 8.9s2.5 26.2-8.9 32.7zm-29.7-148.4l-433.6 250c-11.2 6.4-23.9 9.8-36.7 9.8s-25.6-3.4-36.7-9.8l-433.5-250c-23-13.3-37.3-38.1-37.3-64.9 0-26.8 14.3-51.6 37.4-64.9L476.2 30.6c11.2-6.4 23.8-9.8 36.7-9.8 12.9 0 25.6 3.4 36.8 9.9l432.7 250.1c23 13.3 37.3 38.1 37.3 64.9-.1 26.8-14.4 51.6-37.4 64.9zm-23.5-88.2L526.1 72.3c-4.1-2.4-8.7-3.5-13.2-3.5s-9.1 1.2-13.2 3.5L65.3 322.5c-17.9 10.3-17.9 36.2 0 46.5l433.5 250c4.1 2.3 8.6 3.5 13.2 3.5s9.1-1.2 13.2-3.5l433.6-250.1c17.8-10.2 17.8-36.2 0-46.5zM35.6 681.3l473.8 273.2c1.6.9 3.6.9 5.2 0l473.9-273.3c11.4-6.6 25.9-2.6 32.4 8.9s2.5 26.1-8.8 32.7l-474 273.4c-8.1 4.6-17.1 7-26.2 7-9.1 0-18.1-2.3-26.2-7L12 723c-11.4-6.6-15.4-21.2-8.8-32.7 6.4-11.5 20.9-15.6 32.4-9z"/></svg>