<svg xmlns="http://www.w3.org/2000/svg" width="1024" height="1024" viewBox="0 0 1024 1024"><path d="M250.304 614.272L25.536 848.96c-31.04 32.384-31.04 84.928 0 117.376 31.04 32.384 81.344 32.384 112.384 0l224.768-234.688c31.04-32.384 31.04-84.928 0-117.376s-81.344-32.384-112.384 0zm523.392 0c-31.04-32.384-81.344-32.384-112.384 0s-31.04 84.928 0 117.376L886.08 966.336c31.04 32.384 81.344 32.384 112.384 0s31.04-84.928 0-117.376L773.696 614.272zM137.92 57.536c-31.04-32.192-81.344-32.192-112.384 0s-31.04 84.416 0 116.608L250.304 407.36c31.04 32.192 81.344 32.192 112.384 0s31.04-84.416 0-116.608L137.92 57.536zm635.776 349.888l224.768-233.216c31.04-32.192 31.04-84.416 0-116.608s-81.344-32.192-112.384 0L661.312 290.816c-31.04 32.192-31.04 84.416 0 116.608s81.344 32.192 112.384 0z"/></svg>
