<svg xmlns="http://www.w3.org/2000/svg" viewBox="0 0 1024 1024"><path d="M699.4,798.5C644.3,839.9,576.9,861.8,508,861h-26.7h-10.8l-20.5-5.7l-12.5-2.8l-19.9-5.1l-9.1-3.4l-22.2-8.5h-5.1	l-25-12.5l0,0c-27.4-15.3-52.4-34.5-74.4-56.8l0,0c-6.8-7.2-13.3-14.8-19.3-22.7l-4-5.1c-49.1-64.1-74.9-143.1-73.3-223.8h75.6	c2.1,0.1,4.1-1,5.1-2.8c1-1.8,1-3.9,0-5.7L138.2,303.7c-1.3-2.5-4.4-3.5-6.9-2.2c-0.9,0.5-1.7,1.3-2.2,2.2L0.7,505.3	c-0.9,1.8-0.9,3.9,0,5.7c1,2.2,3.3,3.6,5.7,3.4h75.6c-0.2,91.4,26.2,180.8,76.1,257.3v3.4c5.1,7.4,10.2,14.2,15.9,21.6l5.7,8	c8,10.2,15.9,19.3,25,29l0,0c29.4,31,63.3,57.4,100.6,78.4h2.8c10.2,5.7,20.5,10.8,31.2,15.9l8,4l27.8,10.8l13.6,4.5l25,6.8l17,4	h6.8l23.9,3.4h8.5c102.9,11.4,206.3-17.3,288.6-80.1c23.4-18.2,28.8-51.4,12.5-76.1c-17.2-21.6-48.7-25.1-70.3-7.9	C700.3,797.7,699.9,798.1,699.4,798.5 M942,514.4c0.2-91.1-26-180.3-75.6-256.8v-3.4c-5.7-9.1-12.5-17-18.7-25.6v-2.8	C804.1,170,747.3,125.9,682.4,97.5h-5.1l-30.1-14.2l-10.8-4l-27.3-7.4l-14.8-3.4h-7.4l-18.2-4.5l-16.5-4h-34.1H512	c-88.9,0-175.5,28.9-246.5,82.4c-23.4,18.2-28.8,51.4-12.5,76.1c15.4,22.9,46.5,28.9,69.4,13.5c0.7-0.5,1.5-1,2.2-1.6	c54.2-40.2,120-61.7,187.5-61.4h29l10.8,4.5l23.3,4h9.7l22.2,6.2h6.8l24.4,9.7l0,0c48.4,22.2,90.6,55.7,123.3,97.7l0,0	c50.6,63.4,78.1,142.1,77.8,223.3h-76.1c-2.1-0.1-4.1,1-5.1,2.8c-0.9,1.8-0.9,3.9,0,5.7l127.3,201.7c1.3,2.5,4.4,3.5,6.9,2.2	c0.9-0.5,1.7-1.3,2.2-2.2l129-201.7c1-1.8,1-3.9,0-5.7c-1-1.8-3-2.9-5.1-2.8H942z"/></svg>
