<svg xmlns="http://www.w3.org/2000/svg" viewBox="0 0 1024 1024"><g><g><g><path d="M159.696,255.993c-52.89,0-95.918-43.029-95.918-95.918c0-52.889,43.029-95.918,95.918-95.918	s95.918,43.029,95.918,95.918C255.614,212.964,212.586,255.993,159.696,255.993z M159.696,128.777	c-17.258,0-31.298,14.04-31.298,31.297s14.04,31.298,31.298,31.298s31.298-14.04,31.298-31.298S176.953,128.777,159.696,128.777z	"/></g><g><path d="M319.667,63.993v192h639v-192H319.667z M895.667,191.993H383.542v-64h512.125V191.993z"/></g></g><g><g><path d="M159.696,896.427c-52.89,0-95.918-43.029-95.918-95.918c0-52.889,43.029-95.918,95.918-95.918	s95.918,43.029,95.918,95.918C255.614,853.398,212.586,896.427,159.696,896.427z M159.696,769.211	c-17.258,0-31.298,14.04-31.298,31.297s14.04,31.298,31.298,31.298s31.298-14.04,31.298-31.298S176.953,769.211,159.696,769.211z	"/></g><g><path d="M319.667,704.427v192h639v-192H319.667z M895.667,832.427H383.542v-64h512.125V832.427z"/></g></g><g><g><path d="M159.696,576.06c-52.89,0-95.918-43.029-95.918-95.918c0-52.889,43.029-95.918,95.918-95.918	s95.918,43.029,95.918,95.918C255.614,533.032,212.586,576.06,159.696,576.06z M159.696,448.845	c-17.258,0-31.298,14.04-31.298,31.297c0,17.258,14.04,31.298,31.298,31.298s31.298-14.04,31.298-31.298	C190.994,462.884,176.953,448.845,159.696,448.845z"/></g><g><path d="M319.667,384.06v192h639v-192H319.667z M895.667,512.06H383.542v-64h512.125V512.06z"/></g></g></g></svg>