<svg xmlns="http://www.w3.org/2000/svg" viewBox="0 0 1024 1024"><path d="M918.157,852.511l-178.4-178.5c27.3-42.5,43.6-92.8,43.6-147c0-150.8-122.3-273-273.1-273s-273.1,122.3-273.1,273 	s122.3,273,273.1,273c71.8,0,136.6-28.3,185.3-73.6l171.7,171.7c6.3,7.3,15.5,11.9,25.9,11.9c18.9,0,34.1-15.3,34.1-34.1 	C927.357,866.911,923.857,858.711,918.157,852.511L918.157,852.511z M510.257,731.811c-113.1,0-204.8-91.7-204.8-204.8 	s91.7-204.8,204.8-204.8s204.8,91.7,204.8,204.8S623.457,731.811,510.257,731.811L510.257,731.811z"/><polygon points="959.997,64.404 959.997,64.001 64.001,64.001 64.001,64.957 64.001,127.847 64.001,960 64.167,960 64.167,960.094  	511.938,960.094 511.938,896 127.846,896 127.846,127.847 895.934,127.847 895.934,512 960.028,512 960.028,64.404 "/></svg>