<svg xmlns="http://www.w3.org/2000/svg" width="1024" height="1024" viewBox="0 0 1024 1024"><path d="M987.904 936.64c8.96 10.624 13.44 22.4 13.44 35.264 0 14.4-5.056 26.752-15.104 36.992-9.472 10.048-22.656 15.616-36.288 15.424-5.888 0-11.776-.96-17.344-2.88a45.524 45.524 0 0 1-15.04-8.512l-5.632-4.544-276.032-283.456c-66.304 47.808-140.48 71.68-222.4 71.68-8.192 0-16.576-.384-25.088-1.088a276.212 276.212 0 0 1-25.152-3.456c-56.768-6.592-111.168-26.88-158.72-59.2-52.16-34.112-93.824-79.296-125.12-135.424-15.168-26.176-27.008-54.08-35.392-83.136-8.512-29.312-13.76-59.456-15.616-89.92s-.192-60.992 5.056-91.072c7.424-48.576 24.128-95.168 49.152-137.152a377.768 377.768 0 0 1 96.064-108.736c32.768-26.56 69.504-47.04 110.08-61.504 40.128-14.336 82.24-21.632 124.672-21.632 17.856 0 35.008 1.152 51.456 3.456 43.968 6.08 86.016 19.712 126.272 40.96 39.552 20.736 75.136 48.448 105.088 81.984 34.944 37.184 61.632 81.216 79.872 132.032 18.24 50.88 26.304 102.464 24 154.816-2.944 87.296-32.384 165.824-88.256 235.648l277.12 283.456h-1.088zM742.016 416.384c2.432-46.656-5.184-93.312-22.336-136.576a324.103 324.103 0 0 0-39.168-75.136c-16.384-23.488-35.584-44.544-57.536-63.168-21.632-18.368-45.44-33.92-70.976-46.144-54.4-25.728-114.752-35.584-174.336-28.416-3.328 0-6.72.384-9.984 1.088l-6.72 1.152c-47.616 7.552-92.928 26.048-132.48 54.08-39.744 27.52-72.768 63.936-96.64 106.432-27.52 46.272-42.624 97.92-45.312 154.816-2.56 56.896 7.616 109.632 30.784 158.208 19.328 43.968 48.128 82.88 84.352 113.856 35.84 31.296 78.016 54.272 123.456 67.2 47.68 13.632 95.744 16.32 144.192 7.936 25.408-4.608 50.176-12.224 73.792-22.784 23.488-10.496 45.888-23.616 66.432-39.296 20.608-15.616 39.296-33.6 55.936-53.504 16.768-20.096 30.72-41.92 41.92-65.472 20.864-41.664 32.64-87.488 34.624-134.272z"/></svg>
