<svg xmlns="http://www.w3.org/2000/svg" viewBox="0 0 1024 1024"><g><path d="M192.157,515.512V0h-64v515.284C55.16,529.969,0,594.749,0,672.212c0,77.464,55.16,142.244,128.156,156.929V1024h64	V828.914c72.44-15.119,127.035-79.634,127.035-156.701C319.192,595.146,264.596,530.631,192.157,515.512z M192.157,763.46	c-10.179,3.664-21.14,5.667-32.56,5.667c-11.002,0-21.579-1.858-31.44-5.27c-37.898-13.113-65.197-49.239-65.197-91.644	c0-42.405,27.299-78.531,65.197-91.644c9.861-3.412,20.437-5.27,31.44-5.27c11.42,0,22.382,2.002,32.56,5.667	c37.313,13.432,64.076,49.262,64.076,91.247C256.232,714.198,229.47,750.028,192.157,763.46z"/><path d="M512,324.209V0h-64v324.034c-73.086,14.685-128.305,79.337-128.305,156.643c0,77.306,55.219,141.958,128.305,156.643V1024	h64V637.143c72.649-15.025,127.425-79.472,127.425-156.467C639.425,403.681,584.649,339.234,512,324.209z M512,571.827	c-10.146,3.618-21.066,5.595-32.44,5.595c-11.046,0-21.663-1.864-31.56-5.285c-37.926-13.109-65.239-49.155-65.239-91.461	s27.313-78.351,65.239-91.461c9.897-3.421,20.514-5.285,31.56-5.285c11.374,0,22.293,1.977,32.44,5.595	c37.468,13.36,64.36,49.173,64.36,91.151S549.468,558.467,512,571.827z"/><path d="M831.844,130.277V0.25h-64v130.071c-72.923,14.91-127.952,79.558-127.952,156.817c0,77.259,55.029,141.906,127.952,156.816	v580.296h64V443.998c73.037-14.821,128.182-79.521,128.182-156.86C960.025,209.798,904.881,145.098,831.844,130.277z M831.844,378.657c-9.991,3.49-20.719,5.394-31.885,5.394c-11.252,0-22.059-1.934-32.115-5.475	c-37.706-13.28-64.807-49.251-64.807-91.438c0-42.188,27.101-78.159,64.807-91.439c10.056-3.542,20.863-5.475,32.115-5.475	c11.166,0,21.895,1.904,31.885,5.394c37.825,13.214,65.036,49.246,65.036,91.52S869.669,365.443,831.844,378.657z"/></g></svg>