<svg xmlns="http://www.w3.org/2000/svg" viewBox="0 0 1024 1024"><g><g><path d="M512.625,1025.25c-69.19,0-136.327-13.558-199.546-40.298c-61.047-25.821-115.866-62.779-162.934-109.846	c-47.069-47.068-84.026-101.887-109.847-162.934C13.558,648.952,0,581.815,0,512.625s13.558-136.327,40.298-199.546	c25.821-61.047,62.778-115.866,109.847-162.934c47.068-47.068,101.886-84.026,162.934-109.846C376.298,13.558,443.435,0,512.625,0	s136.327,13.558,199.546,40.298c61.047,25.821,115.866,62.778,162.934,109.846c47.069,47.068,84.026,101.887,109.847,162.934	c26.74,63.22,40.298,130.357,40.298,199.546s-13.558,136.327-40.298,199.546c-25.821,61.047-62.778,115.866-109.847,162.934	c-47.068,47.068-101.886,84.026-162.934,109.846C648.952,1011.692,581.815,1025.25,512.625,1025.25z M512.625,64.696	c-246.989,0-447.929,200.94-447.929,447.929s200.94,447.929,447.929,447.929s447.929-200.94,447.929-447.929	S759.614,64.696,512.625,64.696z"/></g><polygon points="704.615,512 383.57,320.333 383.57,703.667 	"/></g></svg>