<svg xmlns="http://www.w3.org/2000/svg" width="1024" height="1024" viewBox="0 0 1024 1024"><path d="M865.344 1023.104H158.72c-64.96 0-117.76-52.864-117.76-117.952V118.848C40.96 53.824 93.824.896 158.72.896h706.624c64.96 0 117.76 52.928 117.76 117.952v786.304c-.064 65.024-52.864 117.952-117.76 117.952zM158.72 79.552c-21.632 0-39.232 17.6-39.232 39.296v786.304c0 21.696 17.6 39.296 39.232 39.296h706.624c21.632 0 39.232-17.6 39.232-39.296V118.848c0-21.632-17.6-39.296-39.232-39.296H158.72zm511.488 472.832h-433.28c-21.632 0-39.232-17.6-39.232-39.36 0-21.696 17.6-39.296 39.232-39.296h433.344c21.696 0 39.296 17.664 39.296 39.296-.064 21.76-17.6 39.36-39.36 39.36zm115.2 234.24H236.8c-21.696 0-39.232-17.6-39.232-39.296 0-21.76 17.6-39.36 39.232-39.36h548.608c21.696 0 39.232 17.6 39.232 39.36.064 21.696-17.472 39.296-39.232 39.296zM197.632 258.112c0-32.576 26.368-58.944 58.88-58.944s58.88 26.368 58.88 58.944c0 32.576-26.368 58.944-58.88 58.944s-58.88-26.368-58.88-58.944zm254.4 0c0-32.576 26.368-58.944 58.88-58.944s58.88 26.368 58.88 58.944c0 32.576-26.368 58.944-58.88 58.944s-58.88-26.368-58.88-58.944zm255.296 0c0-32.576 26.368-58.944 58.88-58.944s58.88 26.368 58.88 58.944c0 32.576-26.368 58.944-58.88 58.944s-58.88-26.368-58.88-58.944z"/></svg>
