<svg xmlns="http://www.w3.org/2000/svg" viewBox="0 0 1024 1024"><path d="M1024,192H832V64.5A64.5,64.5,0,0,0,767.5,0h-511A64.5,64.5,0,0,0,192,64.5V192H0v64H128V959.5a64.5,64.5,0,0,0,64.5,64.5h639A64.5,64.5,0,0,0,896,959.5V256h128ZM256,64.5a.87.87,0,0,1,0-.17.78.78,0,0,1,.32-.32H767.67a.78.78,0,0,1,.32.32.85.85,0,0,1,0,.17V192H256Zm576,895a.87.87,0,0,1,0,.17.78.78,0,0,1-.32.32H192.33a.78.78,0,0,1-.32-.32.85.85,0,0,1,0-.17V256H832Z"/><rect x="384" y="384" width="64" height="448"/><rect x="576" y="384" width="64" height="448"/></svg>