<svg xmlns="http://www.w3.org/2000/svg" viewBox="0 0 1024 1024"><path d="M1005.5,1006.4c-23.1,23.3-60.8,23.4-84,0.3c-0.1-0.1-0.2-0.2-0.3-0.3L773.6,860.7c-82.7,64.6-184.5,99.9-289.5,100.3	C218.7,962.6,2.3,748.7,0.8,483.3S213.1,1.5,478.5,0s481.8,212.4,483.3,477.7c0.6,107.9-35.1,212.9-101.4,298l144.4,145.1	c23.8,23.1,24.4,61.1,1.3,84.9C1006,1006,1005.8,1006.2,1005.5,1006.4z M870.7,482.4c-2.8-211.7-176.8-381.1-388.5-378.3	C270.5,107,101.1,280.9,103.9,492.7c2.8,209.7,173.6,378.3,383.3,378.3C700,868.5,871.1,695.2,870.7,482.4z M645.8,527.8H326.3	c-25.2-3-43.3-25.9-40.3-51.1c2.5-21.1,19.2-37.8,40.3-40.3h319.5c25.2,3,43.3,25.9,40.3,51.1	C683.5,508.6,666.9,525.3,645.8,527.8z"/></svg>
