<svg xmlns="http://www.w3.org/2000/svg" viewBox="0 0 1024 1024"><path d="M1007.5,921.3L861.5,774.7c162.6-210.1,124.1-512.3-86-674.9s-512.3-124.1-674.9,86s-124.1,512.3,86,674.9	C271,926,374.6,961.4,481.2,961.3c106.1-0.4,209-36.1,292.5-101.4l145.9,147.2c23.4,23.5,61.4,23.7,84.9,0.3	c0.1-0.1,0.2-0.2,0.3-0.3C1029.3,984.2,1030.5,945.8,1007.5,921.3C1007.5,921.4,1007.5,921.3,1007.5,921.3z M481.2,869.6	C264.4,872.5,86.3,699,83.4,482.2S254,87.4,470.8,84.5s394.9,170.6,397.7,387.4c0,1.7,0,3.4,0,5.1	C869,692,696.1,867.2,481.2,869.6z M644.6,431.2H527V315.6c0-25.3-20.5-45.8-45.8-45.8c-25.3,0-45.8,20.5-45.8,45.8v115.6H321.7	c-25.5,3-43.7,26.1-40.7,51.6c2.5,21.3,19.4,38.2,40.7,40.7h113.6v114.9c0,25.3,20.5,45.8,45.8,45.8c25.3,0,45.8-20.5,45.8-45.8	V523.5h117.5c25.5-3,43.7-26.1,40.7-51.6C682.7,450.5,665.9,433.7,644.6,431.2z"/></svg>
